<svg width="193" height="64" viewBox="0 0 193 64" fill="none" xmlns="http://www.w3.org/2000/svg">
<path d="M70.9215 6.23061L71.4813 8.5914L67.5141 8.79827L69.0474 4.86767L65.0317 3.67511L62.9751 9.72312V13.2156L72.3696 12.522L72.7225 13.8971L76.8356 12.9722L75.1198 5.28142L70.9215 6.23061Z" fill="#4C5562"/>
<path d="M89.2488 12.656H82.5193V11.001L89.2488 8.7862C89.2488 8.7862 88.1171 5.05031 88.0319 5.05031C87.971 5.05031 84.223 6.14552 82.5071 6.65662V3.68738H78.2236V16.7326H89.2366V12.6681L89.2488 12.656Z" fill="#4C5562"/>
<path d="M89.2478 27.5265H82.6766V25.1413L89.1261 23.1699L88.0674 19.2272L82.6766 21.1012V17.9373H78.2349V31.8099H89.2478V27.5265Z" fill="#4C5562"/>
<path d="M63.4006 31.8099H67.7206V26.7111H72.0407V28.22H70.2153V31.8099H76.239V14.7124H63.4006V31.8099ZM67.7206 24.3746V22.8292H72.0407V24.3746H67.7206ZM72.0407 18.9837V20.4927H67.7206V18.9837H72.0407Z" fill="#4C5562"/>
<path d="M67.052 33.1607H62.9753V37.5537H67.052V33.1607Z" fill="#4C5562"/>
<path d="M74.7182 33.1607H70.6416V37.5537H74.7182V33.1607Z" fill="#4C5562"/>
<path d="M82.1416 33.1607H78.0649V37.5537H82.1416V33.1607Z" fill="#4C5562"/>
<path d="M89.541 33.1607H85.4644V37.5537H89.541V33.1607Z" fill="#4C5562"/>
<path d="M121.46 10.8548V6.72954H107.55C107.891 5.0137 107.976 3.88198 107.976 3.88198L103.754 3.67511C103.717 4.77032 103.62 5.78035 103.449 6.74171H94.6633V10.867H102.281C99.4458 17.706 93.4951 19.7382 93.4951 19.7382L95.1866 23.5958C97.0728 22.9995 98.6791 22.0747 100.042 20.9551V37.5659H104.326V30.4348H114.572V33.1728H110.398V37.5659H118.636V13.8971H105.263C105.737 12.8627 106.127 11.8405 106.455 10.8548H121.435H121.46ZM104.338 26.8084V24.3746H114.584V26.8084H104.338ZM114.584 20.7483H104.338V18.4118H114.584V20.7483Z" fill="#4C5562"/>
<path d="M181.283 32.686V27.2465H189.947V22.9629H181.283V17.998H188.036V4.0036H169.126V17.998H177.011V32.0289C174.626 30.9093 173.336 28.8041 172.74 27.5142C173.616 23.9608 173.531 21.0646 173.531 21.0646L169.126 20.8577C169.126 30.8972 163.905 34.1706 163.905 34.1706L167.13 37.2372C168.955 35.7283 170.27 33.8299 171.195 31.8829C172.436 33.8177 174.918 36.8113 178.581 36.8113H192.49V32.686H181.295H181.283ZM173.531 8.2871H183.619V13.7267H173.531V8.2871Z" fill="#4C5562"/>
<path d="M159.489 4.00366H156.386V7.75172H159.489V4.00366Z" fill="#4C5562"/>
<path d="M157.858 33.5258L157.079 25.6524L159.537 25.1656L159.087 21.3202L156.689 21.7096L155.886 13.5199H159.537V9.39457H155.485L154.913 3.60211H151.043L151.591 9.39457H140.614C140.614 9.39457 141.296 31.311 137.888 35.777L142.902 37.7606C142.902 37.7606 144.8 32.9903 145.263 28.1714C145.445 26.3339 145.53 23.5715 145.567 20.8578H147.271V29.1936H146.236V33.5136H150.617V16.7933H145.616C145.616 15.4791 145.616 14.3352 145.616 13.5077H152.004L152.844 22.3303L149.096 23.2551L149.558 27.3804L153.221 26.419L154.304 37.7728H159.829V33.5379H157.858V33.5258Z" fill="#4C5562"/>
<path d="M135.224 6.7782V4.00366H130.624V6.7782H126.499V10.6723H139.726V6.7782H135.224Z" fill="#4C5562"/>
<path d="M138.157 13.1791H128.154V16.8298H138.157V13.1791Z" fill="#4C5562"/>
<path d="M138.157 19.8478H128.154V23.4985H138.157V19.8478Z" fill="#4C5562"/>
<path d="M127.704 36.0203H138.85V26.0295H127.704V36.0203ZM130.855 29.4247H135.516V32.6617H130.855V29.4247Z" fill="#4C5562"/>
<path d="M63.0363 47.6783H66.614V52.0592L70.3621 47.6783H75.1202L70.8854 52.0592L75.3027 59.2754H70.8975L68.4516 54.5052L66.6019 56.44V59.2633H63.0242V47.6783H63.0363Z" fill="#4C5562"/>
<path d="M81.2412 53.483C81.2412 51.5968 81.7645 50.1122 82.8232 49.0656C83.8819 48.0191 85.3422 47.4836 87.2284 47.4836C89.1146 47.4836 90.6479 48.0069 91.6822 49.0413C92.7288 50.0756 93.252 51.5238 93.252 53.3978C93.252 54.7486 93.0208 55.8681 92.5706 56.7321C92.1203 57.5961 91.451 58.2776 90.5992 58.7522C89.7474 59.2268 88.6643 59.4701 87.3744 59.4701C86.0845 59.4701 84.9893 59.2633 84.1253 58.8495C83.2734 58.4358 82.5798 57.7786 82.0444 56.8781C81.5089 55.9776 81.2412 54.8459 81.2412 53.4951V53.483ZM84.8311 53.4951C84.8311 54.6634 85.0501 55.503 85.4882 56.0141C85.9263 56.5252 86.5104 56.7808 87.2649 56.7808C88.0194 56.7808 88.6278 56.5252 89.0537 56.0263C89.4796 55.5274 89.6865 54.6269 89.6865 53.3248C89.6865 52.2296 89.4675 51.4386 89.0294 50.9275C88.5913 50.4286 87.995 50.173 87.2405 50.173C86.4861 50.173 85.9385 50.4285 85.5004 50.9396C85.0623 51.4507 84.8432 52.3026 84.8432 53.483L84.8311 53.4951Z" fill="#4C5562"/>
<path d="M107.502 57.3527H103.438L102.878 59.2633H99.2153L103.572 47.6783H107.478L111.835 59.2633H108.087L107.502 57.3527ZM106.76 54.8459L105.482 50.6841L104.217 54.8459H106.76Z" fill="#4C5562"/>
<path d="M118.734 47.6783H127.593V50.173H122.336V52.1931H126.827V54.5295H122.336V59.2633H118.734V47.6783Z" fill="#4C5562"/>
<path d="M140.857 57.3527H136.793L136.233 59.2633H132.57L136.927 47.6783H140.833L145.19 59.2633H141.442L140.857 57.3527ZM140.115 54.8459L138.837 50.6841L137.572 54.8459H140.115Z" fill="#4C5562"/>
<path d="M152.222 47.6783H155.812V59.2633H152.222V47.6783Z" fill="#4C5562"/>
<path d="M163.31 47.6783H174.201V50.5381H170.55V59.2633H166.972V50.5381H163.322V47.6783H163.31Z" fill="#4C5562"/>
<path d="M181.575 47.6783H185.153V51.7306H189.071V47.6783H192.673V59.2633H189.071V54.5782H185.153V59.2633H181.575V47.6783Z" fill="#4C5562"/>
<path d="M2.25156 28.865L27.0277 4.08886C32.4794 -1.36287 41.3142 -1.36287 46.7659 4.08886C52.2176 9.54058 52.2176 18.3753 46.7659 23.827L41.6671 28.9259C40.4988 30.0941 40.4988 31.9924 41.6671 33.1728L47.2161 38.7219C52.7895 44.2953 52.7895 53.3248 47.2161 58.8982C41.594 64.5203 32.4551 64.4594 26.906 58.7643L2.22722 33.3919C0.998148 32.1263 1.01032 30.1062 2.26373 28.8528L2.25156 28.865Z" fill="#F46C1D"/>
<path d="M22.6709 4.86761C20.3466 1.91054 16.7446 0 12.6923 0C5.68294 0 0 5.68294 0 12.6923V26.6867L22.6709 4.86761Z" fill="#19336B"/>
<path d="M22.6709 58.2045C20.3466 61.1615 16.7446 63.0721 12.6923 63.0721C5.68294 63.0721 0 57.3891 0 50.3798V36.3854L22.6709 58.2045Z" fill="#19336B"/>
<path d="M18.8258 28.2807C18.8258 29.0838 18.1687 29.7409 17.3656 29.7409C16.5624 29.7409 15.9053 29.0838 15.9053 28.2807C15.9053 27.4775 16.5624 26.8204 17.3656 26.8204C18.1687 26.8204 18.8258 27.4775 18.8258 28.2807Z" fill="#19336B"/>
<path d="M35.4001 28.2807C35.4001 29.0838 34.7429 29.7409 33.9398 29.7409C33.1366 29.7409 32.4795 29.0838 32.4795 28.2807C32.4795 27.4775 33.1366 26.8204 33.9398 26.8204C34.7429 26.8204 35.4001 27.4775 35.4001 28.2807Z" fill="#19336B"/>
<path d="M25.641 37.2493C23.5479 37.2493 21.8442 35.5457 21.8442 33.4526V29.6072C21.8442 27.5141 23.5479 25.8104 25.641 25.8104C27.734 25.8104 29.4377 27.5141 29.4377 29.6072V33.4526C29.4377 35.5457 27.734 37.2493 25.641 37.2493Z" fill="#19336B"/>
</svg>
