<svg width="184" height="42" viewBox="0 0 184 42" fill="none" xmlns="http://www.w3.org/2000/svg">
<path d="M42.6104 15.3452H46.5044V20.1033L50.5811 15.3452H55.7651L51.1652 20.1033L55.9719 27.9523H51.1773L48.5245 22.7683L46.5166 24.8736V27.9523H42.6225V15.3452H42.6104Z" fill="#4C5562"/>
<path d="M62.4087 21.6487C62.4087 19.5921 62.9806 17.9858 64.1245 16.8419C65.2684 15.698 66.8625 15.1261 68.9191 15.1261C70.9757 15.1261 72.6307 15.6859 73.7746 16.8176C74.9063 17.9493 75.4782 19.5191 75.4782 21.5513C75.4782 23.0238 75.2349 24.2285 74.7359 25.1777C74.237 26.1147 73.519 26.857 72.582 27.3803C71.645 27.9036 70.4768 28.1713 69.0773 28.1713C67.6779 28.1713 66.4732 27.9401 65.5483 27.4898C64.6113 27.0396 63.8568 26.3216 63.2849 25.3359C62.7129 24.3502 62.4209 23.1333 62.4209 21.6609L62.4087 21.6487ZM66.3028 21.673C66.3028 22.9508 66.534 23.8635 67.0086 24.4111C67.4832 24.9708 68.1281 25.2507 68.9435 25.2507C69.7588 25.2507 70.4281 24.983 70.8905 24.4354C71.3529 23.8878 71.5842 22.9143 71.5842 21.5027C71.5842 20.3223 71.3407 19.4461 70.8661 18.8985C70.3916 18.3509 69.7344 18.0832 68.9191 18.0832C68.1038 18.0832 67.5075 18.3631 67.0329 18.9228C66.5583 19.4826 66.3149 20.3953 66.3149 21.6852L66.3028 21.673Z" fill="#4C5562"/>
<path d="M90.9699 25.8714H86.5526L85.9441 27.9523H81.9648L86.6986 15.3452H90.9456L95.6793 27.9523H91.6027L90.9699 25.8714ZM90.1668 23.1456L88.7795 18.6187L87.4044 23.1456H90.1668Z" fill="#4C5562"/>
<path d="M103.187 15.3452H112.813V18.0589H107.093V20.2615H111.973V22.8048H107.093V27.9523H103.175V15.3452H103.187Z" fill="#4C5562"/>
<path d="M127.247 25.8714H122.829L122.221 27.9523H118.242L122.975 15.3452H127.222L131.956 27.9523H127.88L127.247 25.8714ZM126.444 23.1456L125.056 18.6187L123.681 23.1456H126.444Z" fill="#4C5562"/>
<path d="M139.598 15.3452H143.504V27.9523H139.598V15.3452Z" fill="#4C5562"/>
<path d="M151.669 15.3452H163.509V18.4605H159.542V27.9523H155.648V18.4605H151.681V15.3452H151.669Z" fill="#4C5562"/>
<path d="M171.53 15.3452H175.424V19.7504H179.683V15.3452H183.601V27.9523H179.683V22.8535H175.424V27.9523H171.53V15.3452Z" fill="#4C5562"/>
<path d="M1.75965 19.1053L18.1513 2.71358C21.7655 -0.900621 27.6067 -0.900621 31.2209 2.71358C34.8351 6.32778 34.8351 12.1689 31.2209 15.7831L27.85 19.1539C27.0712 19.9328 27.0712 21.1862 27.85 21.965L31.5251 25.64C35.2123 29.3273 35.2123 35.3022 31.5251 39.0016C27.8014 42.7254 21.7534 42.6889 18.0783 38.9165L1.73531 22.1354C0.919984 21.2957 0.932158 19.9571 1.75965 19.1296V19.1053Z" fill="#F46C1D"/>
<path d="M15.2788 3.22479C13.7455 1.26558 11.3604 0 8.67104 0C4.03464 0 0.274414 3.76023 0.274414 8.39663V17.6573L15.2788 3.21263V3.22479Z" fill="#19336B"/>
<path d="M15.2788 38.5271C13.7455 40.4863 11.3604 41.7519 8.67104 41.7519C4.03464 41.7519 0.274414 37.9916 0.274414 33.3552V24.0946L15.2788 38.5392V38.5271Z" fill="#19336B"/>
<path d="M12.7372 18.7159C12.7372 19.2513 12.3113 19.6772 11.7758 19.6772C11.2404 19.6772 10.8145 19.2513 10.8145 18.7159C10.8145 18.1804 11.2404 17.7545 11.7758 17.7545C12.3113 17.7545 12.7372 18.1804 12.7372 18.7159Z" fill="#19336B"/>
<path d="M23.701 18.7159C23.701 19.2513 23.2751 19.6772 22.7397 19.6772C22.2042 19.6772 21.7783 19.2513 21.7783 18.7159C21.7783 18.1804 22.2042 17.7545 22.7397 17.7545C23.2751 17.7545 23.701 18.1804 23.701 18.7159Z" fill="#19336B"/>
<path d="M17.2524 24.6543C15.8652 24.6543 14.7456 23.5348 14.7456 22.1475V19.6042C14.7456 18.2169 15.8652 17.0852 17.2524 17.0852C18.6397 17.0852 19.7714 18.2048 19.7714 19.6042V22.1475C19.7714 23.5348 18.6519 24.6543 17.2524 24.6543Z" fill="#19336B"/>
</svg>
